<svg width="2000" height="2000" viewBox="0 0 2000 2000" fill="none" xmlns="http://www.w3.org/2000/svg">
<g clip-path="url(#clip0_654_1594)">
<rect width="2000" height="2000" fill="#F5F5F5"/>
<path d="M1390.43 466.268C1381.49 486.618 1443.7 517.338 1442.8 531.597C1441.89 545.726 1361.13 548.577 1360.88 580.594C1360.62 612.61 1464.05 606.777 1462.5 624.924C1460.94 643.071 1433.59 663.681 1454.46 673.532C1475.46 683.383 1525.88 646.701 1525.88 646.701C1544.03 631.665 1585.9 616.24 1595.75 582.02C1605.6 547.8 1603.14 534.319 1589.01 536.134C1574.88 537.948 1546.75 538.856 1559.46 507.228C1572.03 475.471 1571.77 463.157 1552.97 436.066C1534.18 408.975 1517.85 399.124 1509.29 416.623C1500.61 434.122 1502.55 464.064 1474.81 461.342C1447.07 458.62 1399.37 446.047 1390.43 466.268Z" fill="#EF7926"/>
<path d="M1299.95 444.881C1277.79 449.547 1276.36 472.62 1269.23 454.862C1262.1 437.103 1276.88 390.699 1263.92 375.144C1250.95 359.719 1200.4 389.662 1190.03 355.96C1179.66 322.259 1181.22 314.093 1166.96 315.13C1152.7 316.037 1145.05 299.445 1128.59 316.037C1112.13 332.629 1091.65 362.96 1097.22 381.237C1102.8 399.513 1126.39 416.753 1140.39 411.438C1154.39 406.124 1163.72 381.237 1175 391.347C1186.27 401.458 1152.31 414.031 1151.15 438.659C1149.98 463.417 1159.05 486.878 1156.98 505.673C1154.91 524.339 1157.63 538.208 1172.27 538.467C1186.79 538.727 1187.57 528.098 1204.16 542.226C1220.75 556.355 1232.55 562.058 1249.4 549.355C1266.25 536.653 1268.58 536.653 1281.93 543.134C1295.29 549.615 1313.56 534.06 1313.56 534.06C1328.99 522.783 1341.95 510.988 1342.21 483.637C1342.47 456.417 1322.12 440.214 1299.95 444.881Z" fill="#EF7926"/>
<path d="M1774.5 1621.33C1750.26 1610.18 1752.59 1609.66 1755.96 1596.44C1759.33 1583.22 1738.46 1584.38 1712.54 1613.03C1686.62 1641.68 1668.47 1656.71 1656.15 1639.21C1643.84 1621.71 1631.53 1597.35 1621.29 1597.35C1611.05 1597.35 1585.38 1632.08 1580.97 1638.18C1573.2 1648.93 1559.2 1664.1 1544.42 1671.88C1529.64 1679.78 1521.35 1689.25 1529 1700.52C1536.64 1711.8 1544.42 1710.63 1540.27 1726.58C1536.12 1742.52 1521.09 1764.17 1527.31 1782.7C1533.53 1801.24 1566.59 1797.74 1571.25 1805.39C1575.92 1813.04 1591.99 1831.05 1612.6 1824.57C1633.21 1818.09 1633.21 1787.11 1654.86 1783.48C1676.63 1779.72 1677.54 1758.59 1673.39 1746.8C1669.25 1735 1653.56 1711.93 1671.97 1699.49C1690.37 1687.04 1715.65 1692.75 1728.09 1710.12C1740.54 1727.49 1794.33 1732.8 1801.07 1697.67C1807.94 1662.41 1798.74 1632.47 1774.5 1621.33Z" fill="#EF7926"/>
<path d="M1994.46 1230.9C1990.32 1197.2 1967.63 1203.68 1946.89 1188.91C1926.15 1174.13 1872.49 1191.63 1877.16 1237.9C1881.82 1284.05 1918.25 1307.64 1952.99 1302.58C1970.61 1299.99 1998.61 1264.73 1994.46 1230.9Z" fill="#F7913C"/>
<path d="M1904.12 742.621C1925.64 713.327 1942.36 690.254 1943.53 667.441C1944.69 644.627 1906.58 644.368 1908.4 630.758C1910.21 617.148 1923.43 592.908 1911.12 580.594C1898.81 568.28 1881.83 576.317 1875.09 594.723C1868.34 613.259 1846.44 609.63 1845.79 593.038C1845.14 576.447 1814.94 574.373 1796.15 589.409C1777.35 604.445 1795.24 626.351 1780.07 640.479C1765.04 654.608 1760.11 652.794 1790.83 675.866C1821.68 698.939 1853.05 749.75 1853.05 749.75C1862.9 758.953 1882.6 771.916 1904.12 742.621Z" fill="#F7913C"/>
<path d="M1492.96 188.23C1504.63 196.915 1514.74 195.878 1502.94 205.211C1491.15 214.414 1485.57 230.098 1495.42 255.763C1505.28 281.298 1529 275.725 1549.35 258.485C1558.03 251.097 1575.27 250.449 1594.58 254.208C1614.03 257.967 1644.75 257.967 1635.8 230.487C1626.86 203.007 1606.25 197.822 1583.44 195.1C1560.62 192.378 1567.36 192.897 1563.48 175.398C1559.59 157.899 1541.57 133.53 1508.65 136.9C1475.72 140.141 1481.3 179.546 1492.96 188.23Z" fill="#F7913C"/>
<path d="M562.408 296.854C545.817 289.725 483.858 267.041 490.08 243.839C496.301 220.766 526.374 188.101 510.041 174.88C493.709 161.659 482.691 162.566 471.284 149.604C459.878 136.642 433.694 151.807 422.288 165.677C410.881 179.546 375.753 179.546 380.679 201.064C385.605 222.581 376.661 241.117 360.069 246.69C343.478 252.264 297.592 249.801 299.666 274.04C301.74 298.28 324.294 297.502 324.035 313.445C323.775 329.389 323.775 352.202 350.477 349.739C377.309 347.277 397.919 337.685 401.548 347.536C405.307 357.387 390.79 403.921 407.381 411.05C423.973 418.179 470.247 406.643 476.34 375.404C482.561 344.166 505.634 338.333 505.634 338.333C527.151 331.592 532.077 345.98 555.279 336.518C578.481 327.056 579.129 303.983 562.408 296.854Z" fill="#EF7926"/>
<path d="M461.433 1652.31C426.306 1637.01 401.419 1643.49 394.03 1681.86C391.567 1694.69 377.827 1693.01 347.366 1693.4C316.905 1693.91 294.74 1710.51 306.665 1738.25C318.72 1765.98 370.698 1758.6 374.198 1779.34C377.698 1800.07 399.993 1859.31 436.027 1865.27C472.062 1871.24 478.543 1810.7 504.468 1788.15C530.392 1765.6 506.282 1739.15 491.117 1710.12C475.821 1680.95 496.561 1667.6 461.433 1652.31Z" fill="#EF7926"/>
<path d="M983.031 1753.54C957.625 1749.39 949.718 1780.37 938.182 1756.78C926.645 1733.19 958.532 1736.95 952.051 1714.78C945.57 1692.62 910.443 1620.55 892.425 1619.64C874.408 1618.73 825.411 1655.16 819.837 1681.08C814.264 1707 814.782 1740.71 836.04 1753.67C857.298 1766.63 851.724 1774.93 854.057 1798C856.391 1821.07 880.889 1821.98 900.203 1810.96C919.516 1799.94 927.423 1799.42 934.423 1792.04C941.293 1784.65 955.68 1810.96 993.141 1801.5C1030.6 1791.78 1008.44 1757.69 983.031 1753.54Z" fill="#F7913C"/>
<path d="M1510.46 1557.55C1500.35 1558.07 1478.57 1587.36 1483.89 1606.29C1489.2 1625.21 1502.81 1629.88 1509.55 1627.03C1522 1621.84 1542.35 1594.1 1542.87 1584.38C1543.38 1574.66 1520.57 1557.16 1510.46 1557.55Z" fill="#F7913C"/>
<path d="M1787.46 1577.64C1785.9 1581.53 1785.26 1584.9 1785.26 1587.88C1785.26 1600.2 1797.57 1608.36 1808.98 1603.7C1816.37 1600.59 1822.59 1592.42 1823.49 1578.68C1825.05 1553.66 1793.94 1562.22 1787.46 1577.64Z" fill="#F7913C"/>
<path d="M1872.49 540.023C1881.57 529.394 1871.97 516.043 1856.03 514.358C1852.01 513.969 1832.18 524.987 1828.29 535.875C1824.4 546.763 1863.42 550.652 1872.49 540.023Z" fill="#F7913C"/>
<path d="M218.651 1589.7C198.43 1595.4 170.173 1599.16 175.487 1621.06C180.802 1642.97 196.745 1634.68 196.745 1646.73C196.745 1658.78 205.559 1672.14 237.187 1662.93C268.815 1653.73 269.592 1633.64 259.093 1612.51C248.594 1591.38 239.131 1583.99 218.651 1589.7Z" fill="#F7913C"/>
<path d="M837.208 375.143C823.079 372.421 776.804 371.125 774.082 335.09C771.36 299.055 722.363 263.928 697.087 260.298C671.811 256.669 623.721 284.278 612.963 339.497C602.204 394.586 635.387 409.363 648.09 442.028C660.664 474.692 663.515 496.598 682.958 490.117C702.402 483.636 699.291 469.118 727.937 474.433C756.583 479.618 772.008 472.618 781.211 463.674C798.062 447.342 812.58 427.38 830.468 406.641C848.355 385.902 851.337 377.865 837.208 375.143Z" fill="#EF7926"/>
<path d="M1438.65 1801.37C1424.78 1794.24 1409.36 1800.85 1404.69 1811.09C1400.02 1821.2 1395.88 1828.85 1386.02 1818.48C1376.17 1808.11 1359.19 1810.57 1347.01 1825.22C1334.82 1839.74 1331.58 1845.83 1331.71 1851.14C1331.97 1856.46 1340.79 1855.29 1346.49 1860.34C1350.51 1863.84 1349.99 1872.14 1341.43 1879.27C1332.88 1886.4 1331.71 1900.79 1340.01 1913.49C1348.3 1926.19 1363.99 1941.49 1394.32 1927.75C1424.52 1914.01 1466.65 1883.68 1471.19 1870.33C1475.85 1856.72 1452.52 1808.5 1438.65 1801.37Z" fill="#F7913C"/>
<path d="M1894.14 1352.88C1872.36 1364.03 1877.55 1390.73 1880.27 1410.69C1882.99 1430.52 1869.64 1450.48 1871.97 1478.09C1874.31 1505.83 1894.92 1503.63 1902.43 1495.2C1912.93 1483.54 1928.75 1466.56 1926.93 1452.3C1925.12 1438.04 1926.93 1430.52 1944.04 1416.78C1961.15 1402.91 1969.45 1384.9 1961.54 1370.12C1953.76 1355.21 1915.91 1341.86 1894.14 1352.88Z" fill="#F7913C"/>
<path d="M1878.2 852.54C1892.71 865.502 1899.58 853.965 1906.84 848.651C1915.01 842.559 1932.25 842.429 1933.16 822.079C1934.06 801.728 1907.75 788.766 1885.84 801.08C1863.94 813.264 1863.68 839.577 1878.2 852.54Z" fill="#F7913C"/>
<path d="M1465.87 399.125C1482.07 392.643 1504.63 371.774 1502.81 351.424C1501 331.073 1482.85 322.518 1464.31 328.61C1445.78 334.832 1420.63 357.257 1424.52 368.015C1428.41 378.774 1443.71 408.068 1465.87 399.125Z" fill="#F7913C"/>
<path d="M1360.88 378.123C1373.45 386.03 1381.62 377.216 1381.62 377.216C1391.08 366.068 1405.86 352.977 1402.62 336.774C1399.37 320.571 1383.04 319.664 1366.84 336.774C1350.64 353.884 1348.17 370.216 1360.88 378.123Z" fill="#F7913C"/>
<path d="M193.249 477.156C207.119 489.21 209.193 510.209 226.692 496.34C234.339 490.247 246.135 476.896 243.802 460.953C241.469 445.009 229.284 446.824 231.099 426.344C232.914 405.734 228.506 396.142 212.433 398.605C196.231 401.197 153.974 425.177 150.734 457.453C147.493 489.729 179.38 465.101 193.249 477.156Z" fill="#F7913C"/>
<path d="M260.65 1038.03C254.169 1034.66 248.466 1052.55 237.837 1062.01C225.523 1073.03 210.098 1083.53 212.56 1094.41C215.023 1105.17 229.8 1113.47 245.225 1105.56C260.65 1097.52 277.242 1091.69 279.445 1078.47C281.519 1065.12 267.131 1041.4 260.65 1038.03Z" fill="#F7913C"/>
<path d="M187.933 1133.43C181.193 1118.39 161.491 1133.69 154.621 1133.43C147.751 1133.17 149.047 1122.28 156.824 1115.54C156.824 1115.54 167.324 1099.21 157.472 1082.23C147.621 1065.25 125.067 1051.38 99.9205 1054.23C74.6444 1056.95 63.6266 1084.43 73.9963 1112.17C84.366 1139.91 115.605 1140.17 129.733 1141.08C143.862 1141.98 113.401 1164.54 129.733 1168.82C146.066 1173.22 194.674 1148.6 187.933 1133.43Z" fill="#F7913C"/>
<path d="M86.3094 918.906C105.234 910.092 114.826 880.538 116.382 863.688C119.363 829.986 107.178 806.913 79.8283 807.821C52.6078 808.728 26.4243 835.3 18.3878 862.391C10.3513 889.482 35.757 904 51.182 906.981C66.6069 909.833 67.3847 927.591 86.3094 918.906Z" fill="#F7913C"/>
<path d="M338.553 1419.89C341.793 1436.48 358.385 1421.71 380.161 1429.61C401.938 1437.52 410.233 1422.23 404.141 1403.69C398.049 1385.15 369.014 1382.17 355.663 1386.84C355.663 1386.97 335.312 1403.3 338.553 1419.89Z" fill="#F7913C"/>
<path d="M387.03 1347.82C387.549 1341.34 357.477 1252.68 355.662 1247.62C355.662 1247.62 356.569 1333.05 361.236 1344.19C365.902 1355.34 386.642 1354.3 387.03 1347.82Z" fill="#F7913C"/>
<path d="M1436.57 1621.71C1418.04 1617.57 1404.04 1625.99 1389.26 1630.27C1385.5 1632.86 1381.87 1635.45 1378.5 1638.56C1372.28 1644.4 1367.74 1649.71 1363.99 1657.23C1363.08 1659.04 1361.91 1660.6 1360.61 1661.77C1354 1677.06 1315.25 1692.23 1333.65 1717.63C1336.12 1721 1344.8 1734.22 1358.02 1733.71C1371.24 1733.06 1367.23 1723.21 1381.48 1732.8C1395.74 1742.39 1425.17 1726.32 1449.92 1701.43C1474.55 1676.15 1460.03 1626.9 1436.57 1621.71Z" fill="#339EBD"/>
<path d="M607.125 146.622C594.811 154.659 606.865 176.176 590.792 173.454C574.719 170.732 570.442 142.085 557.48 149.085C544.518 156.214 571.349 166.843 570.442 187.842C569.534 208.84 577.571 243.32 590.792 231.394C600.125 222.969 591.44 216.618 615.161 214.414C638.882 212.21 656.381 189.786 652.103 171.25C647.826 152.714 619.439 138.586 607.125 146.622Z" fill="#339EBD"/>
<path d="M254.167 793.433C273.221 766.083 262.463 750.658 281.258 745.084C300.053 739.511 308.349 725.641 300.053 712.679C291.757 699.717 272.962 688.699 269.203 654.738C265.444 620.907 225.132 571.262 211.003 562.059C196.874 552.856 174.061 562.059 174.061 562.059C163.95 569.188 132.841 583.317 127.527 603.668C122.212 624.018 143.859 646.183 133.36 663.682C122.86 681.181 72.6969 653.831 47.4207 688.31C22.1446 722.79 53.2537 768.676 93.9548 771.527C134.656 774.379 164.469 769.324 167.58 784.489C170.691 799.525 138.674 803.544 142.692 819.876C146.711 836.208 168.228 852.541 195.319 844.504C222.41 836.467 235.112 820.783 254.167 793.433Z" fill="#339EBD"/>
<path d="M1858.88 1117.75C1842.81 1128.89 1828.55 1140.82 1833.6 1152.22C1838.53 1163.63 1849.68 1178.41 1864.45 1172.58C1880.92 1166.09 1896.21 1142.11 1891.29 1128.24C1886.36 1114.38 1874.95 1106.73 1858.88 1117.75Z" fill="#339EBD"/>
<path d="M906.036 396.531C920.294 373.458 912.517 354.792 903.573 358.681C882.704 367.884 856.002 377.606 858.724 405.345C861.575 433.084 891.777 419.603 906.036 396.531Z" fill="#339EBD"/>
<path d="M879.72 565.429C859.11 547.93 813.613 509.821 805.836 508.266C795.726 506.062 811.021 568.928 816.595 572.299C820.872 574.891 856.259 574.113 876.609 573.984C881.017 573.854 883.09 568.28 879.72 565.429Z" fill="#339EBD"/>
<path d="M744.398 552.467C722.621 547.801 765.915 520.58 748.157 516.692C730.399 512.803 664.94 596.798 676.995 597.575C689.05 598.353 764.878 569.447 768.767 565.948C777.062 558.041 766.174 557.133 744.398 552.467Z" fill="#339EBD"/>
<path d="M638.366 566.076C619.83 544.818 642.514 524.986 610.886 521.745C579.259 518.505 520.54 570.223 511.337 595.629C502.134 621.035 545.039 666.791 567.204 653.44C585.999 642.034 613.349 619.48 637.329 609.758C647.18 605.74 652.495 594.722 649.125 584.482C647.31 578.908 644.069 572.686 638.366 566.076Z" fill="#339EBD"/>
<path d="M342.57 910.22C345.681 881.833 290.851 856.687 277.889 858.113C264.926 859.668 225.262 902.054 227.336 917.868C229.54 933.552 268.297 983.197 283.981 977.623C293.443 974.253 339.459 938.478 342.57 910.22Z" fill="#339EBD"/>
<path d="M564.87 478.84C579.647 478.581 608.293 471.193 613.349 453.046C618.404 434.899 601.294 425.696 567.203 433.603C533.113 441.38 541.798 479.229 564.87 478.84Z" fill="#339EBD"/>
<path d="M998.715 1860.74C963.588 1847.77 915.498 1834.68 899.814 1843.63C866.242 1862.81 866.113 1868.12 865.594 1887.05C865.335 1895.73 866.89 1904.81 870.649 1913.75C875.056 1924.12 882.315 1934.1 893.333 1942.53C913.684 1958.21 997.289 1951.73 1011.55 1923.6C1011.81 1923.21 1011.94 1922.69 1012.2 1922.31C1026.19 1894.7 1033.32 1873.44 998.715 1860.74Z" fill="#339EBD"/>
<path d="M264.667 408.846C275.555 415.068 289.554 406.772 289.554 406.772C301.09 396.791 329.477 372.811 322.996 355.701C316.515 338.591 289.036 322 263.371 331.851C237.706 341.832 255.334 351.294 258.704 367.756C262.334 384.347 253.779 402.494 264.667 408.846Z" fill="#339EBD"/>
<path d="M58.5692 1175.56C41.9776 1185.67 30.4413 1209.78 38.7371 1235.18C47.0328 1260.59 62.3282 1274.46 77.4939 1289.75C92.7892 1305.05 109.381 1285.09 109.381 1285.09C129.213 1261.5 139.842 1227.8 125.972 1207.06C112.103 1186.19 75.1607 1165.32 58.5692 1175.56Z" fill="#339EBD"/>
<path d="M1919.28 900.24C1898.93 905.814 1881.05 888.834 1875.6 912.554C1870.03 936.275 1861.73 978.791 1878.71 995.771C1895.69 1012.75 1930.17 1003.16 1930.17 1003.16C1940.67 1000.05 1965.04 992.401 1968.67 949.885C1972.3 907.37 1939.63 894.796 1919.28 900.24Z" fill="#339EBD"/>
<path d="M1371.63 243.191C1382.26 252.913 1391.98 312.928 1410 303.724C1428.02 294.521 1464.96 218.693 1457.18 190.954C1449.28 163.215 1408.7 163.215 1410 140.531C1411.3 117.847 1426.59 72.091 1400.28 58.74C1373.97 45.389 1344.41 60.5547 1309.67 98.9226C1274.94 137.291 1269.88 141.438 1242.27 140.92C1214.53 140.401 1172.53 194.972 1184.07 226.34C1195.61 257.709 1233.07 216.619 1256.66 199.12C1280.25 181.621 1305.66 191.732 1305.66 232.822C1305.66 273.911 1320.17 277.93 1336.12 261.986C1345.06 253.042 1361 233.47 1371.63 243.191Z" fill="#339EBD"/>
<path d="M1058.34 432.439C1043.04 418.828 1054.06 392.386 1001.17 388.238C948.417 384.09 920.159 410.014 918.345 432.439C916.53 454.863 941.028 468.733 928.066 480.269C915.104 491.805 894.365 520.97 914.197 545.857C934.029 570.745 975.119 565.3 975.119 565.3C993.136 563.486 1005.19 555.19 1022.69 542.617C1040.19 530.173 1056.91 549.098 1067.02 525.507C1077.13 501.916 1070.26 488.954 1081.28 464.585C1092.56 439.957 1073.63 446.049 1058.34 432.439Z" fill="#339EBD"/>
<path d="M1225.94 44.999C1230.86 18.5562 1205.33 -2.70168 1187.44 0.279612C1169.55 3.39053 1183.42 19.7228 1163.98 21.7968C1144.54 24.0003 1119.26 18.6859 1124.57 36.3144C1129.89 53.9429 1131.18 58.4796 1139.61 74.8119C1161.9 117.587 1221.01 71.4418 1225.94 44.999Z" fill="#339EBD"/>
<path d="M535.059 1833.9C520.023 1833.26 511.597 1841.94 511.597 1841.94C500.45 1848.42 495.913 1867.22 509.134 1881.35C522.356 1895.47 522.356 1881.6 533.763 1864.36C545.169 1847.13 550.095 1834.55 535.059 1833.9Z" fill="#339EBD"/>
<path d="M407.121 1495.2C393.899 1471.35 368.364 1460.59 357.865 1474.85C347.495 1489.11 350.735 1536.03 329.218 1539.27C307.701 1542.52 283.721 1537.2 292.924 1579.98C298.887 1607.71 304.72 1631.69 319.756 1629.36C334.792 1627.03 329.737 1576.86 353.069 1587.75C376.4 1598.64 397.399 1614.07 419.305 1584.51C441.211 1554.96 456.766 1537.33 457.414 1521.91C458.191 1506.61 420.342 1519.05 407.121 1495.2Z" fill="#339EBD"/>
<path d="M951.921 264.836C949.328 250.059 933.385 264.576 924.7 274.557C917.96 282.205 912.905 305.018 927.293 305.537C941.421 306.055 954.384 279.613 951.921 264.836Z" fill="#F8B212"/>
<path d="M1297.36 1769.22C1290.88 1767.67 1270.92 1793.2 1271.44 1803.05C1271.95 1812.9 1299.43 1837.27 1312.14 1826.77C1320.95 1819.52 1334.04 1804.61 1333.65 1798.26C1333.27 1791.91 1303.84 1770.78 1297.36 1769.22Z" fill="#F8B212"/>
<path d="M1850.32 1061.36C1846.95 1062.79 1825.83 1098.04 1816.36 1113.99C1812.48 1120.47 1819.09 1128.24 1826.09 1125.26C1829.59 1123.84 1833.86 1121.37 1839.18 1117.36C1864.71 1098.56 1876.77 1115.8 1894.27 1116.71C1911.77 1117.62 1925.63 1108.02 1922.01 1096.75C1918.38 1085.47 1854.6 1059.55 1850.32 1061.36Z" fill="#F8B212"/>
<path d="M159.026 974.772C182.877 973.216 195.709 945.866 180.932 921.238C166.156 896.61 151.119 898.295 142.564 901.795C128.436 907.498 107.956 929.015 112.492 946.384C117.288 963.624 135.306 976.327 159.026 974.772Z" fill="#F8B212"/>
<path d="M350.994 618.314C344.124 607.685 298.368 613.647 314.441 636.331C320.533 644.886 326.107 658.107 338.81 652.922C351.513 647.738 357.994 628.943 350.994 618.314Z" fill="#F8B212"/>
<path d="M69.9754 1008.47C78.7896 995.252 80.8636 950.663 50.6618 947.033C20.46 943.274 -25.1667 958.181 -16.0932 1005.23C-14.5378 1013.4 -5.46427 1021.82 3.73885 1019.36C12.942 1016.77 12.2939 1001.6 27.5892 1012.62C42.8845 1023.77 61.1611 1021.7 69.9754 1008.47Z" fill="#F8B212"/>
<path d="M371.345 588.759C404.399 616.498 445.1 615.331 445.1 615.331C471.413 609.369 482.69 599.647 488.523 569.575C494.356 539.503 502.781 529.652 507.188 511.764C511.595 494.006 499.281 463.026 463.247 455.897C427.212 448.768 413.602 471.581 402.973 487.265C392.344 502.95 377.308 501.524 367.456 488.173C357.476 474.822 350.606 449.546 337.903 453.305C325.2 457.064 314.312 466.915 319.367 488.173C324.422 509.56 338.292 561.02 371.345 588.759Z" fill="#F8B212"/>
<path d="M1411.95 1475.37C1393.15 1482.11 1388.87 1474.07 1391.34 1457.22C1393.8 1440.24 1378.11 1429.22 1355.56 1435.32C1333.14 1441.54 1328.47 1459.69 1327.56 1490.41C1327.17 1503.89 1318.75 1533.05 1322.64 1552.62C1324.19 1560.4 1327.69 1566.62 1334.43 1569.86C1337.8 1571.55 1341.69 1571.55 1345.32 1572.46C1353.49 1574.53 1359.58 1580.75 1367.23 1583.73C1375.78 1586.97 1385.63 1586.59 1394.45 1585.42C1411.56 1583.21 1429.96 1575.7 1441.5 1562.48C1456.28 1545.5 1458.09 1511.66 1449.15 1502.07C1440.2 1492.48 1430.74 1468.63 1411.95 1475.37Z" fill="#F8B212"/>
<path d="M1977.74 1017.94C1968.41 1028.56 1953.24 1050.99 1955.06 1059.03C1956.87 1067.06 1981.37 1091.82 1989.02 1093.5C1996.67 1095.19 2014.69 1054.1 2017.15 1043.73C2019.87 1033.49 1998.74 994.215 1977.74 1017.94Z" fill="#F8B212"/>
<path d="M1801.33 465.621C1786.55 457.066 1772.94 439.567 1788.62 431.012C1804.31 422.457 1813.51 404.958 1805.73 391.736C1797.83 378.515 1797.7 352.98 1779.81 346.239C1762.05 339.499 1760.89 355.702 1746.37 350.387C1731.85 345.073 1715.13 336.129 1697.63 346.499C1680.13 356.868 1684.02 379.811 1689.59 397.958C1695.17 416.235 1681.95 446.177 1662.76 445.529C1643.58 444.881 1628.8 433.086 1626.99 449.288C1625.17 465.491 1649.8 494.137 1685.83 485.971C1721.87 477.935 1723.68 466.528 1733.92 476.509C1744.03 486.49 1748.18 504.637 1768.53 497.248C1770.48 496.47 1777.09 486.36 1793.55 484.027C1810.01 481.694 1816.1 474.176 1801.33 465.621Z" fill="#F8B212"/>
<path d="M1685.32 318.499C1685.32 275.595 1627.12 283.89 1596.14 298.149C1565.16 312.407 1549.99 335.609 1564.77 358.682C1579.55 381.755 1613.77 382.662 1613.77 382.662C1639.17 382.662 1685.32 361.404 1685.32 318.499Z" fill="#F8B212"/>
<path d="M1081.41 130.03C1096.19 99.9579 1088.41 72.7374 1074.02 57.9606C1059.64 43.1837 1071.17 75.0706 1040.71 71.83C1010.25 68.5895 1027.36 19.2037 994.567 9.48214C961.772 -0.23946 938.181 15.0559 928.071 29.3142C917.96 43.5726 884.648 65.349 896.184 94.5138C907.72 123.679 931.7 123.679 931.311 142.992C930.793 162.435 949.329 205.859 1021.92 190.563C1035.27 187.712 1039.42 180.842 1073.25 194.322C1106.95 207.673 1132.87 192.896 1124.97 170.731C1117.06 148.436 1066.64 159.973 1081.41 130.03Z" fill="#F8B212"/>
<path d="M437.971 675.478C373.29 677.293 328.959 749.362 340.625 773.472C352.291 797.452 402.195 815.987 423.842 806.136C445.359 796.285 487.486 751.436 503.948 731.604C518.725 713.587 502.652 673.663 437.971 675.478Z" fill="#F8B212"/>
<path d="M218.392 1419.5C192.987 1410.3 205.43 1377.89 198.042 1359.49C190.654 1340.95 164.34 1354.82 148.138 1373.75C133.231 1391.11 127.009 1387.1 112.492 1376.6C109.64 1374.52 106.27 1372.97 102.9 1371.93C92.1412 1368.95 68.939 1364.28 59.4767 1375.3C47.033 1389.95 35.4967 1421.71 70.6241 1450.74C105.751 1479.78 83.0678 1483.15 77.4941 1514C71.9203 1544.85 143.082 1573.1 190.394 1568.57C237.706 1563.9 272.445 1462.28 272.445 1441.54C272.445 1420.8 243.798 1428.71 218.392 1419.5Z" fill="#F8B212"/>
<path d="M476.21 1595.79C480.357 1620.81 485.802 1648.55 506.022 1644.66C526.243 1640.77 535.835 1620.42 519.892 1591.51C503.949 1562.61 472.191 1571.81 476.21 1595.79Z" fill="#F8B212"/>
<path d="M996.899 1591.77C961.771 1588.01 934.032 1600.07 954.383 1626.38C964.234 1639.21 974.992 1658.78 1001.18 1650.36C1027.36 1642.19 1032.03 1595.53 996.899 1591.77Z" fill="#F8B212"/>
<path d="M1089.32 248.246C1070.39 246.432 1011.29 246.82 997.807 260.69C984.456 274.559 963.586 325.371 972.401 338.333C981.215 351.295 1037.99 325.371 1060.15 341.574C1074.02 351.684 1056.4 312.409 1078.69 291.151C1100.86 270.023 1108.24 250.061 1089.32 248.246Z" fill="#F8B212"/>
<path d="M276.076 1266.16C284.113 1235.31 297.075 1220.02 258.189 1212.63C219.432 1205.24 197.785 1233.63 197.785 1233.63C186.638 1250.87 176.786 1268.11 193.508 1281.72C210.099 1295.33 246.782 1282.36 246.004 1320.47C245.227 1358.71 242.764 1386.97 266.873 1386.97C290.853 1386.97 313.019 1372.84 302.649 1340.82C292.279 1308.81 268.04 1297.01 276.076 1266.16Z" fill="#EEE1C3"/>
<path d="M1752.98 528.486C1748.06 514.357 1716.95 501.395 1684.54 509.95C1652.14 518.635 1656.8 558.039 1665.75 570.872C1674.69 583.834 1683.25 580.075 1682.08 597.055C1680.91 614.036 1689.21 628.165 1706.45 619.221C1713.45 615.591 1714.49 602.24 1726.8 580.464C1739.11 558.687 1757.91 542.744 1752.98 528.486Z" fill="#EEE1C3"/>
<path d="M1285.31 1943.43C1285.57 1962.1 1279.73 1976.75 1258.22 1985.69C1251.35 1988.54 1242.92 1990.74 1232.68 1992.43C1228.41 1993.08 1223.74 1993.73 1218.68 1994.24C1202.22 1995.8 1184.07 1996.58 1165.93 1996.71C1150.5 1996.84 1134.95 1996.71 1120.43 1996.19C1102.02 1995.67 1085.17 1994.76 1071.95 1993.99C1067.03 1993.73 1062.49 1993.34 1058.73 1993.08C1047.97 1992.3 1038.9 1984.65 1036.69 1974.15C1033.71 1959.77 1034.36 1942.78 1037.08 1923.86C1028.79 1923.34 1020.62 1922.69 1012.46 1922.17C1012.2 1922.56 1012.07 1923.08 1011.81 1923.47C997.549 1951.6 913.814 1958.08 893.593 1942.4C882.575 1933.97 875.316 1923.99 870.909 1913.62C860.41 1913.1 850.17 1912.58 840.319 1912.06C840.707 1914.53 841.096 1916.73 841.356 1918.93C842.522 1931.12 839.8 1939.54 833.06 1945.38C829.69 1948.23 825.412 1950.56 820.227 1952.25C814.913 1954.06 808.561 1955.36 801.303 1956.27C793.914 1957.3 785.489 1957.82 776.026 1958.34C774.989 1958.34 774.082 1958.47 773.045 1958.47C762.675 1958.86 751.009 1959.12 738.307 1959.38C736.362 1959.38 734.288 1959.51 732.214 1959.51C718.993 1959.77 704.605 1960.02 688.921 1960.54C680.366 1960.8 672.329 1960.93 664.941 1960.8C656.775 1960.67 649.257 1960.41 642.387 1959.77C598.186 1956.27 580.168 1944.6 576.28 1932.54C574.724 1927.49 575.502 1922.43 578.095 1917.9C578.224 1917.51 578.483 1917.25 578.613 1916.73C547.633 1920.23 525.209 1925.67 525.209 1934.75C525.209 1975.45 970.847 2002.28 1139.74 2005C1308.64 2007.73 1370.99 1967.93 1373.84 1956.01C1374.36 1953.15 1339.49 1948.62 1285.31 1943.43Z" fill="#EEE1C3"/>
<path d="M846.28 311.761C849.521 336.518 883.222 338.074 904.74 325.371C904.74 325.371 914.202 311.761 896.833 293.743C879.593 275.726 843.04 287.003 846.28 311.761Z" fill="#EEE1C3"/>
<path d="M721.455 214.025C741.806 226.988 783.674 222.71 815.042 241.764C846.41 260.819 844.596 274.429 871.687 238.653C898.777 202.878 909.925 182.657 896.315 167.751C882.704 152.844 884.26 178.898 858.595 172.676C826.708 165.029 815.69 157.251 831.634 129.512C847.707 101.773 868.576 88.2927 851.336 79.608C834.096 70.9234 830.337 86.9964 802.339 79.608C774.341 72.2196 770.063 81.4227 753.342 70.4049C736.751 59.2575 734.288 45.7768 708.364 58.0909C682.439 70.4049 679.976 112.921 697.216 146.752C714.456 180.583 701.105 201.063 721.455 214.025Z" fill="#EEE1C3"/>
<path d="M697.084 680.662C533.891 727.066 525.077 936.794 566.815 1029.99C625.792 1161.95 724.045 1224.03 760.988 1286.77C768.635 1299.73 785.875 1303.23 798.059 1294.42C830.724 1270.96 882.184 1223.65 879.073 1158.45C877.128 1118.91 866.37 1062.79 863.648 1002.25C863.518 999.141 863.388 996.16 863.388 993.049C863.259 987.864 863.129 982.55 863.129 977.365C863.129 933.683 868.314 889.482 884.128 848.521C888.017 838.54 892.294 828.43 897.609 819.227C911.996 794.469 929.755 772.823 949.846 752.99C925.866 731.862 818.28 646.312 697.084 680.662Z" fill="#E7741E"/>
<path d="M1693.61 700.105C1605.6 692.587 1542.08 736.788 1510.46 765.823C1518.49 778.396 1526.01 791.618 1533.01 805.098C1564.64 866.928 1582.66 935.109 1582.14 992.142C1581.49 1063.82 1557.9 1099.73 1543.77 1121.12C1540.14 1126.56 1535.21 1134.08 1535.09 1136.54C1539.75 1150.67 1574.36 1206.67 1618.95 1262.79C1679.35 1224.42 1784.61 1137.06 1823.1 1014.83C1872.88 856.688 1822.97 711.123 1693.61 700.105Z" fill="#E7741E"/>
<path d="M1716.3 692.067C1567.23 645.922 1480.38 732.12 1480.38 732.12L1494 748.193C1596.14 660.051 1716.3 692.067 1716.3 692.067Z" fill="#28759E"/>
<path d="M1832.7 1389.43C1825.96 1325.4 1772.29 1309.32 1749.48 1327.86C1726.67 1346.4 1722.39 1395.65 1761.14 1406.67C1761.14 1406.67 1740.15 1425.21 1664.45 1354.95C1588.75 1284.7 1511.62 1166.48 1503.72 1141.85C1495.68 1117.23 1548.95 1098.43 1549.99 992.14C1550.9 885.851 1485.31 733.416 1363.34 653.051C1241.36 572.686 1046.8 583.315 959.566 626.219C959.566 626.219 806.224 578.13 674.01 630.886C541.926 683.512 503.558 778.784 503.558 778.784C503.558 778.784 338.032 896.091 303.164 1111.78C300.83 1125.91 299.145 1140.3 298.108 1155.2C294.738 1190.33 292.923 1233.11 301.219 1260.98C313.663 1302.58 324.551 1284.18 327.144 1207.7C332.458 1155.59 349.179 1052.03 401.028 1007.31C401.028 1007.31 338.68 1162.59 412.175 1306.73C485.671 1450.87 561.888 1585.29 575.757 1680.95C589.368 1774.92 588.331 1895.08 578.609 1916.86C578.479 1917.25 578.22 1917.64 578.091 1917.9C575.628 1922.43 574.72 1927.49 576.276 1932.54C582.368 1926.45 594.941 1916.99 612.829 1919.71C635.124 1923.21 647.438 1941.75 642.383 1959.63C649.253 1960.15 656.771 1960.54 664.937 1960.67C666.103 1953.15 669.992 1935.01 683.084 1928.91C698.898 1921.66 727.803 1925.16 732.21 1959.25C734.284 1959.25 736.358 1959.12 738.303 1959.12C736.877 1952.38 735.451 1941.62 738.303 1933.84C742.45 1922.17 772.263 1916.99 773.171 1958.34C774.208 1958.34 775.245 1958.21 776.152 1958.21C775.893 1944.73 775.763 1927.88 788.855 1920.62C797.669 1915.69 809.205 1915.04 818.149 1919.97C827.352 1925.16 831.63 1935.14 833.315 1945.12C840.055 1939.28 842.777 1930.86 841.611 1918.67C841.352 1916.47 841.092 1914.27 840.574 1911.8C831.5 1862.55 777.319 1762.22 768.634 1680.17C766.43 1660.21 766.43 1639.99 767.597 1619.9C768.245 1609.92 770.319 1599.68 776.411 1591.9C783.54 1582.95 795.077 1578.42 806.354 1576.73C819.446 1574.79 833.056 1575.44 846.277 1575.31C860.147 1575.18 874.016 1574.14 887.886 1573.23C917.699 1571.42 947.771 1569.73 977.324 1565.59C1029.95 1558.2 1042.91 1570.25 1049.39 1601.62C1055.87 1632.99 1064.17 1783.61 1052.12 1845.57C1046.67 1873.95 1040.45 1900.27 1037.21 1923.6C1034.62 1942.52 1033.84 1959.5 1036.82 1973.89C1039.02 1984.39 1048.23 1992.04 1058.86 1992.82C1062.74 1993.08 1067.15 1993.34 1072.08 1993.72C1067.15 1963.13 1094.76 1961.32 1106.17 1966.63C1114.46 1970.52 1118.74 1986.73 1120.56 1995.93C1135.07 1996.32 1150.63 1996.58 1166.05 1996.45C1161.78 1989.71 1157.37 1980.37 1160.48 1973.76C1165.66 1962.36 1195.87 1950.69 1208.83 1957.43C1218.16 1962.36 1228.01 1981.8 1232.81 1992.17C1243.05 1990.48 1251.47 1988.15 1258.34 1985.43C1252.9 1979.86 1239.29 1965.08 1237.47 1954.06C1236.83 1949.91 1239.03 1944.34 1243.18 1939.28C1251.99 1928.53 1269.49 1920.49 1285.05 1936.04C1284.53 1929.56 1283.36 1922.69 1282.06 1915.43C1274.68 1873.44 1239.16 1840.12 1243.31 1780.11C1247.46 1720.09 1302.41 1466.3 1297.49 1368.95C1297.49 1368.95 1359.71 1401.23 1429.96 1454.89C1500.22 1508.55 1608.32 1573.1 1708.13 1555.6C1807.81 1538.24 1839.44 1453.46 1832.7 1389.43ZM1481.29 1013.4C1496.07 995.899 1530.94 1003.42 1535.34 1031.93C1539.75 1060.45 1517.85 1078.6 1487.51 1065.64C1471.57 1058.77 1466.52 1030.9 1481.29 1013.4ZM1051.34 675.994C1028.27 689.474 1006.36 704.511 985.62 721.102C973.176 731.213 961.122 741.712 949.845 752.859C929.883 772.562 911.995 794.338 897.607 819.096C892.293 828.299 887.886 838.409 884.127 848.39C868.313 889.351 863.128 933.552 863.128 977.234C863.128 982.419 863.258 987.733 863.387 992.918C863.517 996.029 863.517 999.14 863.646 1002.12C867.665 1033.75 874.275 1068.36 884.515 1100.11C912.903 1186.96 918.217 1285.6 791.707 1363.64C780.041 1370.89 764.875 1369.21 754.894 1359.88C746.08 1351.58 733.895 1338.36 717.174 1317.23C672.844 1260.85 629.421 1223.9 552.685 1139.78C475.949 1055.65 440.303 785.654 614.125 672.235C772.004 569.315 943.752 692.845 945.697 694.141C947.641 695.048 949.715 695.437 951.789 695.437C954.641 695.437 957.363 694.659 959.826 692.974C999.101 667.05 1039.02 650.199 1073.76 639.181C1097.74 631.663 1119.13 626.997 1136.5 624.016C1142.2 622.979 1144.67 631.015 1139.35 633.348C1112 645.792 1073.37 663.161 1051.34 675.994ZM1068.19 1055.53C1049.13 1029.6 1062.36 1011.84 1078.95 997.584C1078.95 997.584 1099.56 978.141 1124.83 996.029C1150.11 1013.92 1161.78 1056.95 1144.28 1073.28C1126.78 1089.75 1087.37 1081.45 1068.19 1055.53ZM1741.57 1439.33C1735.22 1465.65 1713.18 1485.61 1688.3 1494.55C1667.17 1502.46 1643.97 1504.14 1621.54 1502.33C1584.08 1500.26 1549.86 1483.92 1517.59 1466.94C1467.68 1439.85 1421.02 1407.32 1375.65 1373.36C1375.13 1372.97 1374.61 1372.58 1374.22 1372.19C1370.85 1369.73 1367.61 1367.14 1364.24 1364.54C1319.65 1330.45 1276.36 1294.68 1234.49 1257.35C1234.49 1257.35 1234.36 1257.22 1234.1 1257.09C1230.73 1254.23 1203.64 1230.9 1193.66 1226.63C1185.11 1222.87 1178.63 1226.88 1161.65 1230.51C1157.5 1231.42 1152.7 1232.2 1147.13 1232.98C1143.5 1233.37 1140 1233.62 1136.5 1233.5C1136.24 1233.5 1135.85 1233.5 1135.59 1233.5C1135.07 1233.5 1134.56 1233.5 1134.17 1233.5C1133.65 1233.5 1133.13 1233.5 1132.61 1233.37C1129.89 1233.24 1127.3 1232.85 1124.7 1232.46C1124.32 1232.46 1124.06 1232.33 1123.67 1232.33C1120.94 1231.94 1118.35 1231.29 1115.89 1230.77C1115.37 1230.64 1114.85 1230.51 1114.33 1230.38C1113.69 1230.25 1113.04 1230 1112.52 1229.87C1112.52 1229.87 1112.52 1229.87 1112.39 1229.87C1108.24 1228.57 1108.76 1222.48 1113.17 1221.96H1113.3C1117.96 1221.44 1122.63 1220.66 1127.3 1219.63C1132.35 1218.59 1137.28 1217.29 1142.2 1215.74C1142.33 1215.74 1142.46 1215.74 1142.46 1215.61C1149.72 1213.4 1156.85 1210.68 1163.72 1207.44C1164.63 1207.05 1165.53 1206.66 1166.44 1206.15C1194.18 1195.52 1201.7 1204.59 1209.74 1210.68C1210.51 1211.33 1211.29 1211.98 1212.07 1212.76C1253.42 1250.09 1343.5 1328.25 1448.89 1399.8C1554.27 1471.35 1614.28 1482.37 1658.74 1477.31C1666.65 1476.92 1674.56 1476.15 1682.21 1474.46C1687.52 1473.29 1692.7 1471.87 1697.76 1469.92C1699.83 1469.15 1701.91 1468.24 1703.98 1467.2C1704.89 1466.81 1705.8 1466.3 1706.7 1465.91C1707.48 1465.52 1708.26 1465.13 1709.04 1464.61C1709.17 1464.61 1709.17 1464.48 1709.3 1464.48C1710.07 1464.09 1710.85 1463.57 1711.5 1463.18C1711.5 1463.18 1711.63 1463.18 1711.63 1463.05C1712.41 1462.67 1713.06 1462.15 1713.83 1461.63C1714.74 1460.98 1715.65 1460.46 1716.55 1459.81C1717.2 1459.43 1717.85 1458.91 1718.5 1458.39C1719.28 1457.87 1719.93 1457.35 1720.7 1456.7C1720.7 1456.7 1720.83 1456.7 1720.83 1456.57C1721.48 1456.06 1722.13 1455.54 1722.78 1454.89L1722.91 1454.76C1723.42 1454.24 1724.07 1453.72 1724.59 1453.33C1725.5 1452.43 1726.41 1451.65 1727.31 1450.74C1727.7 1450.35 1728.09 1449.83 1728.61 1449.44C1729 1449.06 1729.26 1448.67 1729.65 1448.28C1730.17 1447.76 1730.55 1447.24 1731.07 1446.72C1731.72 1445.94 1732.37 1445.3 1732.89 1444.52C1733.54 1443.74 1734.05 1442.96 1734.7 1442.19C1734.7 1442.19 1734.7 1442.19 1734.7 1442.06C1735.22 1441.28 1735.74 1440.5 1736.26 1439.72C1736.78 1439.07 1737.16 1438.3 1737.68 1437.65C1737.81 1437.52 1737.81 1437.39 1737.94 1437.39C1739.11 1435.96 1742.09 1437.13 1741.57 1439.33Z" fill="#28759E"/>
<path d="M1520.95 1060.45C1529.12 1054.62 1531.07 1043.34 1525.23 1035.17C1519.4 1027.01 1508.12 1025.06 1499.96 1030.9C1491.79 1036.73 1489.85 1048.01 1495.68 1056.17C1501.51 1064.34 1512.79 1066.28 1520.95 1060.45Z" fill="#28759E"/>
<path d="M1131.85 1052.31C1140.41 1043.76 1140.41 1029.89 1131.85 1021.33C1123.3 1012.78 1109.43 1012.78 1100.87 1021.33C1092.32 1029.89 1092.32 1043.76 1100.87 1052.31C1109.43 1060.86 1123.3 1060.86 1131.85 1052.31Z" fill="#28759E"/>
<path d="M1258.08 1985.69C1252.64 1980.12 1239.03 1965.34 1237.21 1954.32C1236.57 1950.17 1238.77 1944.6 1242.92 1939.54C1251.73 1928.79 1269.23 1920.75 1284.78 1936.3C1285.04 1938.77 1285.04 1941.1 1285.17 1943.3C1285.56 1962.1 1279.73 1976.62 1258.08 1985.69Z" fill="white"/>
<path d="M1232.68 1992.43C1228.4 1993.08 1223.73 1993.73 1218.68 1994.25C1202.22 1995.8 1184.07 1996.58 1165.92 1996.71C1161.64 1989.97 1157.24 1980.64 1160.35 1974.02C1165.53 1962.62 1195.73 1950.95 1208.7 1957.69C1218.03 1962.75 1227.88 1982.06 1232.68 1992.43Z" fill="white"/>
<path d="M1120.42 1996.19C1102.02 1995.67 1085.17 1994.77 1071.95 1993.99C1067.02 1963.4 1094.63 1961.58 1106.04 1966.9C1114.33 1970.91 1118.61 1986.99 1120.42 1996.19Z" fill="white"/>
<path d="M642.251 1959.77C598.051 1956.27 580.033 1944.6 576.145 1932.55C582.237 1926.45 594.81 1916.99 612.698 1919.71C634.993 1923.21 647.307 1941.88 642.251 1959.77Z" fill="white"/>
<path d="M731.949 1959.38C718.728 1959.64 704.34 1959.89 688.656 1960.41C680.101 1960.67 672.064 1960.8 664.676 1960.67C665.842 1953.15 669.731 1935.01 682.823 1928.91C698.637 1921.79 727.672 1925.29 731.949 1959.38Z" fill="white"/>
<path d="M772.912 1958.47C762.543 1958.86 750.877 1959.12 738.174 1959.38C736.748 1952.64 735.322 1941.88 738.174 1934.1C742.192 1922.44 772.005 1917.12 772.912 1958.47Z" fill="white"/>
<path d="M832.923 1945.38C829.553 1948.23 825.276 1950.56 820.091 1952.25C814.776 1954.06 808.425 1955.36 801.166 1956.27C793.778 1957.3 785.352 1957.82 775.89 1958.34C775.631 1944.86 775.501 1928.01 788.593 1920.75C797.407 1915.83 808.943 1915.18 817.887 1920.1C826.961 1925.29 831.238 1935.4 832.923 1945.38Z" fill="white"/>
<path d="M1741.57 1439.34C1741.57 1439.47 1741.57 1439.47 1741.57 1439.47C1735.35 1465.65 1713.18 1485.61 1688.43 1494.56C1667.3 1502.46 1644.09 1504.15 1621.67 1502.33C1584.21 1500.26 1549.99 1483.93 1517.71 1466.95C1467.81 1439.85 1421.15 1407.32 1375.78 1373.36C1375.26 1372.97 1374.74 1372.58 1374.35 1372.19C1370.98 1369.73 1367.74 1367.14 1364.37 1364.54C1319.78 1330.45 1276.49 1294.68 1234.62 1257.35C1234.62 1257.35 1234.49 1257.22 1234.23 1257.09C1230.86 1254.24 1203.77 1230.91 1193.79 1226.63C1185.23 1222.87 1178.75 1226.89 1161.77 1230.52C1157.63 1231.42 1152.83 1232.2 1147.26 1232.98C1143.63 1233.37 1140.13 1233.63 1136.63 1233.5C1136.37 1233.5 1135.98 1233.5 1135.72 1233.5C1135.2 1233.5 1134.68 1233.5 1134.29 1233.5C1133.78 1233.5 1133.26 1233.5 1132.74 1233.37C1130.02 1233.24 1127.42 1232.85 1124.83 1232.46C1124.44 1232.46 1124.18 1232.33 1123.79 1232.33C1121.07 1231.94 1118.48 1231.29 1116.02 1230.78C1115.5 1230.65 1114.98 1230.52 1114.46 1230.39C1113.81 1230.26 1113.17 1230 1112.65 1229.87C1112.65 1229.87 1112.65 1229.87 1112.52 1229.87C1108.37 1228.57 1108.89 1222.48 1113.3 1221.96H1113.42C1118.09 1221.44 1122.76 1220.67 1127.42 1219.63C1132.48 1218.59 1137.4 1217.3 1142.33 1215.74C1142.46 1215.74 1142.59 1215.74 1142.59 1215.61C1149.85 1213.41 1156.98 1210.68 1163.85 1207.44C1164.75 1207.06 1165.66 1206.67 1166.57 1206.15C1194.31 1195.52 1201.83 1204.59 1209.86 1210.68C1210.64 1211.33 1211.42 1211.98 1212.2 1212.76C1253.55 1250.09 1343.63 1328.25 1449.01 1399.8C1554.4 1471.35 1614.41 1482.37 1658.87 1477.32C1666.78 1476.93 1674.69 1476.15 1682.33 1474.46C1687.65 1473.3 1692.83 1471.87 1697.89 1469.93C1699.96 1469.15 1702.04 1468.24 1704.11 1467.21C1705.02 1466.82 1705.92 1466.3 1706.83 1465.91C1707.61 1465.52 1708.39 1465.13 1709.16 1464.61C1709.29 1464.61 1709.29 1464.48 1709.42 1464.48C1710.2 1464.09 1710.98 1463.58 1711.63 1463.19C1711.63 1463.19 1711.76 1463.19 1711.76 1463.06C1712.53 1462.67 1713.18 1462.15 1713.96 1461.63C1714.87 1460.98 1715.78 1460.46 1716.68 1459.82C1717.33 1459.43 1717.98 1458.91 1718.63 1458.39C1719.4 1457.87 1720.05 1457.35 1720.83 1456.71C1720.83 1456.71 1720.96 1456.71 1720.96 1456.58C1721.61 1456.06 1722.26 1455.54 1722.9 1454.89L1723.03 1454.76C1723.55 1454.24 1724.2 1453.72 1724.72 1453.34C1725.63 1452.43 1726.53 1451.65 1727.44 1450.74C1727.83 1450.35 1728.22 1449.84 1728.74 1449.45C1729.13 1449.06 1729.39 1448.67 1729.77 1448.28C1730.29 1447.76 1730.68 1447.24 1731.2 1446.72C1731.85 1445.95 1732.5 1445.3 1733.01 1444.52C1733.66 1443.74 1734.18 1442.97 1734.83 1442.19C1734.83 1442.19 1734.83 1442.19 1734.83 1442.06C1735.35 1441.28 1735.87 1440.5 1736.39 1439.73C1736.9 1439.08 1737.29 1438.3 1737.81 1437.65C1737.94 1437.52 1737.94 1437.39 1738.07 1437.39C1739.11 1435.97 1742.09 1437.13 1741.57 1439.34Z" fill="white"/>
</g>
<defs>
<clipPath id="clip0_654_1594">
<rect width="2000" height="2000" fill="white"/>
</clipPath>
</defs>
</svg>
